<svg xmlns="http://www.w3.org/2000/svg" xmlns:xlink="http://www.w3.org/1999/xlink" xmlns:lucid="lucid" width="848" height="261"><g transform="translate(-12 40)" lucid:page-tab-id="0_0"><path d="M220-20h130.53v75H220z" stroke="#000" stroke-opacity="0" stroke-width=".5" fill="#fff" fill-opacity="0"/><use xlink:href="#a" transform="matrix(1,0,0,1,225,-15) translate(-0.8888888888888857 172.26666666666668)"/><path d="M383.16-20h130.52v75H383.16z" stroke="#000" stroke-opacity="0" stroke-width=".5" fill="#fff" fill-opacity="0"/><use xlink:href="#b" transform="matrix(1,0,0,1,388.157894736842,-15) translate(-0.8888888888888857 172.26666666666668)"/><path d="M546.32-20h130.52v75H546.32z" stroke="#000" stroke-opacity="0" stroke-width=".5" fill="#fff" fill-opacity="0"/><use xlink:href="#c" transform="matrix(1,0,0,1,551.3157894736842,-15) translate(-0.8888888888888857 172.26666666666668)"/><path d="M709.47-20H840v75H709.47z" stroke="#000" stroke-opacity="0" stroke-width=".5" fill="#fff" fill-opacity="0"/><use xlink:href="#d" transform="matrix(1,0,0,1,714.4736842105262,-15) translate(-0.8888888888888857 172.26666666666668)"/><path d="M32 89l40-69h80l40 69-40 69H72z" stroke="#000" stroke-width="3" fill="#333"/><path d="M52 89l30-51.75h60L172 89l-30 51.75H82z" stroke="#ff0" stroke-width="10" fill="#666"/><defs><path fill="#666" d="M183-191c-3 64 5 97 76 97h131c89 7 69-61 76-137 9-106-139-71-225-71-110 0-159-47-159-149v-84c0-103 59-149 169-149h152c116 0 169 49 164 162l-101 27c3-64-5-96-76-96H259c-85-6-76 54-76 127 0 106 139 71 225 71 110 0 159 45 159 148v97C567-46 508 0 398 0H246C129 0 77-49 82-164" id="e"/><use transform="matrix(0.18888888888888888,0,0,0.18888888888888888,0,0)" xlink:href="#e" id="a"/><path fill="#666" d="M540 0H439v-145L307-270 181-154V0H80v-684h101c1 136-1 274 1 408l261-252h137L374-337l166 159V0" id="f"/><use transform="matrix(0.18888888888888888,0,0,0.18888888888888888,0,0)" xlink:href="#f" id="b"/><path fill="#666" d="M548-375v142H197c2 78-18 149 76 149h101c73 2 81-30 78-94l96 19C556-41 498 1 379 0H265C155 0 101-43 101-146v-236c0-102 54-146 164-146h119c110 0 164 50 164 153zm-275-70c-93-5-74 60-76 135h255c-2-75 17-135-76-135H273" id="g"/><use transform="matrix(0.18888888888888888,0,0,0.18888888888888888,0,0)" xlink:href="#g" id="c"/><path fill="#666" d="M203-528c1 15-3 35 2 47 19-25 60-47 131-47h84c99 0 147 49 147 151v226C567-48 519 0 420 0h-84c-73 1-111-24-133-47v268H102v-749h101zm0 348c0 87 89 86 179 86 126 0 84-151 84-254 0-61-21-87-84-87-90 0-179-1-179 86v169" id="h"/><use transform="matrix(0.18888888888888888,0,0,0.18888888888888888,0,0)" xlink:href="#h" id="d"/></defs></g></svg>